<?xml version="1.0" encoding="utf-8"?>
<!-- Generator: Adobe Illustrator 22.0.0, SVG Export Plug-In . SVG Version: 6.00 Build 0)  -->
<svg version="1.1" id="圖層_1" xmlns="http://www.w3.org/2000/svg" xmlns:xlink="http://www.w3.org/1999/xlink" x="0px" y="0px"
	 viewBox="0 0 841.9 595.3" style="enable-background:new 0 0 841.9 595.3;" xml:space="preserve">
<style type="text/css">
	.st0{fill:none;}
	.st1{fill:#992135;}
</style>
<circle id="XMLID_63_" class="st0" cx="152.4" cy="120.5" r="88.1"/>
<g>
	<path class="st1" d="M174.8,205.6c0-20.8,0-41.6,0-62.6c0.8,0,1.5-0.1,2.3-0.1c6.9,0,13.7,0,20.6,0c1.1,0,1.9-0.1,2.2-1.4
		c1.6-6.6,3.3-13.3,5-19.9c0.1-0.3,0-0.6,0-1.3c-0.9,0-1.7,0-2.6,0c-8.4,0-16.8-0.1-25.1,0c-1.9,0-2.5-0.6-2.4-2.5
		c0.1-4.4,0-8.8,0-13.3c0-4.2,1.9-6.1,6-6.1c8.3,0,16.5-0.1,24.8,0c1.9,0,2.5-0.5,2.5-2.4c-0.1-6-0.1-12,0-18c0-1.5-0.4-2.1-2-2.1
		c-9,0.1-18,0-26.9,0.1c-14.4,0.2-26.4,12.2-26.7,26.6c-0.1,4.8,0,9.5,0,14.3c0,3.5,0.6,3.4-3.5,3.4c-5.3,0-10.6,0-15.8,0
		c-0.8,0-1.7,0.1-2.7,0.1c-0.1,0.6-0.2,1.1-0.2,1.6c0,6.3,0,12.5,0,18.8c0,1.6,0.5,2,2,2c5.9-0.1,11.7,0,17.6,0c0.7,0,1.4,0,2.3,0
		c0,22,0,43.9,0,65.7c-36.9,0.9-79.9-26.7-87-75.5c-7.4-51.6,30.4-95.3,77.7-100.3c51.6-5.4,93.3,33.2,97.4,79.4
		C244.9,165.3,205.7,199,174.8,205.6z"/>
</g>
</svg>
