<?xml version="1.0" encoding="utf-8"?>
<!-- Generator: Adobe Illustrator 22.0.0, SVG Export Plug-In . SVG Version: 6.00 Build 0)  -->
<svg version="1.1" id="圖層_1" xmlns="http://www.w3.org/2000/svg" xmlns:xlink="http://www.w3.org/1999/xlink" x="0px" y="0px"
	 viewBox="0 0 841.9 595.3" style="enable-background:new 0 0 841.9 595.3;" xml:space="preserve">
<style type="text/css">
	.st0{fill:#992135;}
	.st1{fill:#FFFFFF;}
</style>
<circle id="XMLID_62_" class="st0" cx="144.6" cy="138.4" r="88.1"/>
<g>
	<path class="st1" d="M144.6,190.1c-6.5,0-13.1,0-19.6,0c-15.4-0.1-28.1-10.5-31.3-25.5c-0.5-2.3-0.7-4.7-0.7-7
		c-0.1-12.8,0-25.5,0-38.3c0-16.4,11.2-29.6,27.4-32.2c1.5-0.2,3.1-0.3,4.6-0.3c13.1,0,26.2-0.1,39.3,0
		c15.4,0.1,28.1,10.5,31.3,25.5c0.5,2.2,0.7,4.5,0.7,6.7c0.1,12.9,0.1,25.9,0,38.8c-0.1,15.5-10.4,28.4-25.6,31.5
		c-2.3,0.5-4.7,0.6-7,0.7C157.3,190.1,151,190.1,144.6,190.1z M144.7,95.7c-6.4,0-12.8,0-19.2,0c-13.5,0-23.6,10.1-23.6,23.7
		c0,12.7,0,25.4,0,38.1c0,13.6,10.1,23.6,23.6,23.7c12.8,0,25.5,0,38.3,0c13.5,0,23.5-10.1,23.5-23.6c0-12.8,0-25.5,0-38.3
		c0-13.5-10.1-23.6-23.5-23.6C157.4,95.7,151.1,95.7,144.7,95.7z"/>
	<path class="st1" d="M144.6,112.7c14.1,0,25.6,11.6,25.7,25.6c0,14.1-11.6,25.7-25.7,25.7c-14.1,0-25.7-11.7-25.7-25.8
		C118.9,124.2,130.6,112.7,144.6,112.7z M161.3,138.5c0-9.2-7.4-16.8-16.6-16.8c-9.2-0.1-16.8,7.4-16.9,16.6
		c-0.1,9.3,7.4,16.9,16.7,16.9C153.8,155.2,161.3,147.7,161.3,138.5z"/>
	<path class="st1" d="M166.4,110.3c0-3.5,2.8-6.3,6.3-6.3c3.5,0,6.3,2.8,6.4,6.3c0,3.5-3,6.5-6.4,6.4
		C169.2,116.6,166.4,113.8,166.4,110.3z"/>
</g>
</svg>
