<?xml version="1.0" encoding="utf-8"?>
<!-- Generator: Adobe Illustrator 22.0.0, SVG Export Plug-In . SVG Version: 6.00 Build 0)  -->
<svg version="1.1" id="圖層_1" xmlns="http://www.w3.org/2000/svg" xmlns:xlink="http://www.w3.org/1999/xlink" x="0px" y="0px"
	 viewBox="0 0 841.9 595.3" style="enable-background:new 0 0 841.9 595.3;" xml:space="preserve">
<style type="text/css">
	.st0{fill:#992135;}
	.st1{fill:#FFFFFF;}
</style>
<circle id="XMLID_60_" class="st0" cx="138.4" cy="131.1" r="88.1"/>
<g>
	<path class="st1" d="M138.4,93.9c14.4,0,28.9,0,43.3,0c5.3,0,9.3,3.5,10.1,8.7c0.2,1.4,0,2.4-1.3,3.3c-16.9,12-33.8,24-50.7,36
		c-1.1,0.8-1.8,0.8-2.8,0c-16.9-12.1-33.9-24.1-50.8-36.3c-0.7-0.5-1.2-1.8-1.2-2.7c0.4-5.2,4.7-9.1,10.1-9.1
		C109.6,93.9,124,93.9,138.4,93.9z M97.7,98.4c-0.1,0.1-0.1,0.3-0.2,0.4c0.2,0.1,0.4,0.2,0.5,0.4c13.1,9.1,26.2,18.2,39.2,27.4
		c1.1,0.8,1.8,0.5,2.7-0.2c12.8-8.9,25.5-17.8,38.3-26.7c0.4-0.3,0.7-0.7,1.3-1.2C152,98.4,124.8,98.4,97.7,98.4z"/>
	<path class="st1" d="M84.9,109.5c4.5,3.2,8.6,6.1,12.6,9.1c0.6,0.4,0.8,1.6,0.8,2.5c0,15.2,0,30.5,0,45.7c0,0.9,0,1.7,0,2.8
		c26.7,0,53.2,0,80.2,0c0-0.8,0-1.6,0-2.4c0-15.3,0-30.6,0-45.9c0-1.6,0.5-2.5,1.8-3.4c3.8-2.6,7.5-5.3,11.7-8.3c0,1.2,0,1.8,0,2.5
		c0,17,0,33.9,0,50.9c0,7-4,11.1-11,11.1c-28.4,0-56.7,0-85.1,0c-6.8,0-10.9-4.1-10.9-11c0-17,0-34.1,0-51.1
		C84.9,111.3,84.9,110.7,84.9,109.5z"/>
</g>
</svg>
