<?xml version="1.0" encoding="utf-8"?>
<!-- Generator: Adobe Illustrator 22.0.0, SVG Export Plug-In . SVG Version: 6.00 Build 0)  -->
<svg version="1.1" id="圖層_1" xmlns="http://www.w3.org/2000/svg" xmlns:xlink="http://www.w3.org/1999/xlink" x="0px" y="0px"
	 viewBox="0 0 841.9 595.3" style="enable-background:new 0 0 841.9 595.3;" xml:space="preserve">
<style type="text/css">
	.st0{fill:#992135;}
	.st1{fill:#FFFFFF;}
</style>
<circle id="XMLID_61_" class="st0" cx="142.1" cy="113.7" r="88.1"/>
<g>
	<path class="st1" d="M195.8,88.7c-4.8,17.3-9.4,34-14.2,50.6c-0.3,0.9-1.9,2.1-2.8,2.1c-19.3,0.1-38.7,0.1-58,0.1
		c-2.4,0-2.6-1.4-3-3c-5.2-18.6-10.6-37.2-15.7-55.8c-0.9-3.3-2.4-4.1-5.5-4c-6.5,0.2-12.9,0.1-19.6,0.1c0-2.3,0-4.2,0-6.4
		c9.5,0,18.9,0,28.6,0c1.2,4.1,2.5,8.2,3.4,12.4c0.7,3,1.9,4,5.1,4c25.8-0.2,51.7-0.1,77.5-0.1C192.8,88.7,194.1,88.7,195.8,88.7z
		 M112.4,95.2c0,0.8-0.1,1.2,0,1.5c3.3,12,6.8,24,10,36c0.7,2.4,2.2,2.3,4.1,2.3c15.7,0,31.3-0.1,47,0c2.7,0,3.5-1.1,4.1-3.3
		c1.7-6.6,3.6-13.2,5.5-19.9c1.5-5.5,3-10.9,4.6-16.7C162.2,95.2,137.4,95.2,112.4,95.2z"/>
	<path class="st1" d="M129.1,172.1c-7.3,0-13.4-6.2-13.3-13.4c0.1-7.2,6.1-13.1,13.3-13.1c7.4,0,13.3,6.1,13.3,13.5
		C142.2,166.2,136.3,172.1,129.1,172.1z M129.3,151.6c-3.9-0.1-7.4,3.3-7.5,7.2c-0.1,4,3.1,7.3,7.2,7.4c4.1,0,7.3-3,7.4-7.1
		C136.5,155.1,133.3,151.6,129.3,151.6z"/>
	<path class="st1" d="M170.8,172.1c-7.4,0.1-13.3-5.8-13.4-13.3c0-7.2,5.8-13.2,13-13.3c7.2-0.1,13.2,5.7,13.3,12.9
		C184,165.9,178.1,172,170.8,172.1z M178.1,158.9c-0.1-3.9-3.5-7.3-7.4-7.3c-4,0-7.2,3.3-7.2,7.4c0,4.1,3.2,7.2,7.3,7.2
		C174.9,166.2,178.2,162.9,178.1,158.9z"/>
</g>
</svg>
