<?xml version="1.0" encoding="utf-8"?>
<!-- Generator: Adobe Illustrator 22.0.0, SVG Export Plug-In . SVG Version: 6.00 Build 0)  -->
<svg version="1.1" id="圖層_1" xmlns="http://www.w3.org/2000/svg" xmlns:xlink="http://www.w3.org/1999/xlink" x="0px" y="0px"
	 viewBox="0 0 841.9 595.3" style="enable-background:new 0 0 841.9 595.3;" xml:space="preserve">
<style type="text/css">
	.st0{fill:none;}
	.st1{fill:#992135;}
	.st2{fill:#FFFFFF;}
</style>
<circle id="XMLID_63_" class="st0" cx="152.4" cy="120.5" r="88.1"/>
<circle id="XMLID_58_" class="st1" cx="148" cy="120.5" r="88.1"/>
<path class="st2" d="M147.9,170.1c-9.5,0-19.1,0-28.6,0c-8.8,0-13.2-3.9-13.8-12.7c-1.4-18.9-2.8-37.7-4.2-56.6
	c-0.3-4.6,1.4-6.5,6.2-6.6c5.3-0.1,10.6-0.2,15.8,0c2.9,0.1,3.8-0.6,4.6-3.8c1.3-6,3-12.3,6.2-17.4c6.4-10.1,19.7-10.2,27.2-0.9
	c4.2,5.3,6.5,11.5,7,18.1c0.3,3.6,1.7,4.2,4.8,4.1c5.3-0.2,10.5-0.1,15.8,0c4.6,0.1,6.3,1.6,6,6.2c-0.8,13.3-1.9,26.7-2.9,40
	c-0.4,5.4-0.9,10.8-1.2,16.2c-0.5,9-5,13.5-14,13.5C167,170.1,157.4,170.1,147.9,170.1z M134.1,94.2c7.9,0,15.3,0,22.7,0
	c1,0,2.2,0.3,2.9-0.1c0.9-0.6,2.3-2.1,2.1-2.8c-1.4-5-2.4-10.4-5.1-14.7c-4.2-6.9-12.5-6.8-17.5-0.3
	C135.3,81.3,133.9,87.2,134.1,94.2z M148.4,156.1c0.1-0.4,0.2-0.7,0.4-1.1c1.1,0,2.3,0.1,3.4,0c6-0.6,10.4-4.2,11.8-9.5
	c1.1-4.5-1-9.4-6-12.6c-2.5-1.6-5.3-2.7-8-3.9c-2.2-1-4.5-1.7-6.7-2.8c-3-1.6-5.5-3.8-5-7.7c0.5-3.8,3.3-6.5,6.8-6.7
	c3.9-0.3,7.9,1,11.9,1.5c1.2,0.2,2.5,0,3.7,0c-0.7-1.1-1.2-2.5-2.2-3.1c-4.3-2.7-9.2-3.2-14-2.2c-6.5,1.4-10.6,7.1-9.5,13.1
	c0.8,4.9,4.7,7.2,8.8,9.1c4,1.9,8.2,3.4,12,5.5c3.2,1.8,5.6,4.7,4.8,8.8c-0.8,4-3.7,5.8-7.4,6.8c-5.8,1.5-10.9-0.6-15.8-3.3
	c-1.1-0.6-2.5-0.4-3.8-0.6c0.7,1.2,1.1,3.1,2.1,3.5C139.8,152.9,144.1,154.4,148.4,156.1z"/>
</svg>
