<?xml version="1.0" encoding="iso-8859-1"?>
<!-- Generator: Adobe Illustrator 22.0.0, SVG Export Plug-In . SVG Version: 6.00 Build 0)  -->
<svg version="1.1" id="&#x5716;&#x5C64;_1" xmlns="http://www.w3.org/2000/svg" xmlns:xlink="http://www.w3.org/1999/xlink" x="0px"
	 y="0px" viewBox="0 0 377.217 792" style="enable-background:new 0 0 377.217 792;" xml:space="preserve">
<g id="XMLID_127_">
	<path id="XMLID_195_" style="fill:#982135;" d="M23.587,51.641c0.02-0.013,0.02-0.027,0.035-0.042
		c-0.17-0.207-0.318-0.385-0.429-0.521L23.587,51.641z"/>
	<path id="XMLID_194_" style="fill:#982135;" d="M32.038,47.833c0.034,0.015,0.053,0.024,0.084,0.038
		C32.041,47.738,31.973,47.599,32.038,47.833z"/>
	<path id="XMLID_193_" style="fill:#982135;" d="M53.197,91.281c0,0-0.014,0.018-0.026,0.032c0.047,0.038,0.082,0.066,0.143,0.116
		L53.197,91.281z"/>
	<path id="XMLID_192_" style="fill:#982135;" d="M53.194,91.742c-0.246-0.118-0.08-0.355-0.023-0.429
		c-0.321-0.261-0.518-0.226-0.66-0.014C52.645,91.671,52.999,91.496,53.194,91.742z"/>
	<path id="XMLID_191_" style="fill:#982135;" d="M40.025,45.811c0.04,0.187,0.087,0.333,0.133,0.458l0.023,0.001L40.025,45.811z"/>
	<path id="XMLID_190_" style="fill:#982135;" d="M60.556,66.701l-0.503,0.004c0.055,0.036,0.14,0.054,0.242,0.056L60.556,66.701z"/>
	<path id="XMLID_189_" style="fill:#982135;" d="M50.483,48.774c0.028-0.067,0.069-0.126,0.092-0.201
		c-0.113-0.235-0.55-0.397-1.135-0.478l-0.198,0.741C49.241,48.81,50.483,48.774,50.483,48.774z"/>
	<path id="XMLID_188_" style="fill:#982135;" d="M50.486,68.029l-0.008-0.006C49.915,68.179,50.13,68.131,50.486,68.029z"/>
	<polygon id="XMLID_187_" style="fill:#982135;" points="54.84,51.887 54.883,51.921 55.071,51.17 	"/>
	<path id="XMLID_186_" style="fill:#982135;" d="M63.587,58.377c-0.129-0.487-0.28-0.422-0.425-0.251
		C63.247,58.277,63.373,58.376,63.587,58.377z"/>
	<path id="XMLID_185_" style="fill:#982135;" d="M51.826,68.914c-0.028,0.08,0.315,0.022,0.694-0.065
		c-0.084-0.082-0.136-0.133-0.136-0.133C52.254,68.779,51.956,68.857,51.826,68.914z"/>
	<path id="XMLID_184_" style="fill:#982135;" d="M59.668,67.47l0.481-0.015C60.016,67.372,59.845,67.403,59.668,67.47z"/>
	<path id="XMLID_183_" style="fill:#982135;" d="M347.55,66.957l-0.01-0.002c-0.207,0.17-0.386,0.317-0.523,0.428L347.55,66.957z"/>
	<path id="XMLID_182_" style="fill:#982135;" d="M347.218,64.771c0.01-0.026,0.015-0.041,0.024-0.065
		C347.165,64.842,347.085,64.976,347.218,64.771z"/>
	<path id="XMLID_181_" style="fill:#982135;" d="M341.781,76.321l0.019-0.017c0.01-0.051,0.018-0.087,0.031-0.153L341.781,76.321z"
		/>
	<path id="XMLID_180_" style="fill:#982135;" d="M341.987,75.929c-0.017,0.194-0.144,0.334-0.187,0.375
		c-0.068,0.345-0.011,0.393,0.104,0.266C342.036,76.196,341.906,76.212,341.987,75.929z"/>
	<path id="XMLID_179_" style="fill:#982135;" d="M345.556,63.849c0.032-0.188,0.057-0.337,0.079-0.466l-0.005-0.005L345.556,63.849z
		"/>
	<path id="XMLID_178_" style="fill:#982135;" d="M327.279,66.482l0.265,0.036l-0.453-0.184
		C327.12,66.393,327.181,66.441,327.279,66.482z"/>
	<path id="XMLID_177_" style="fill:#982135;" d="M342.641,61.663l-0.149-0.748c-0.011-0.02-0.395,0.416-0.395,0.416
		c0.015,0.07,0.029,0.135,0.045,0.212C342.264,61.733,342.433,61.726,342.641,61.663z"/>
	<path id="XMLID_176_" style="fill:#982135;" d="M337.186,73.475c0.019,0,0.048-0.004,0.062-0.003
		C337.251,73.454,337.226,73.457,337.186,73.475z"/>
	<path id="XMLID_171_" style="fill:#982135;" d="M372.469,64.03l0.173,0.062c-1.019-4.662-4.014-8.604-7.585-11.548
		c-3.58-3.021-7.645-5.165-12.181-7.419c-1.962-1.576-4.755-1.922-7.441-1.715c-2.727,0.152-5.353,0.655-8.3,0.465
		c-0.652-0.504-3.852,0.151-6.583,1.66c-2.766,1.452-4.937,3.545-5.074,4.064c0,0,0.517,0.107,1.035,0.214
		c0.513,0.128,1.025,0.257,1.025,0.257c-1.3,1.371-2.471,2.1-3.508,2.937c-1.052,0.802-1.937,1.744-2.3,3.329l-0.209-0.324
		c-0.295,0.091,0.315,0.662,0.188,1.41c-0.138,0.789-0.966,1.57-4.148,3.173l-0.159-0.053c-0.042,0.179,0.279,0.278-0.283,0.478
		l1.313-0.499c0.196,0.626,0.795,1.279,0.669,1.924c-0.233,0.08-0.572,0.037-0.839-0.022l-0.189,1.659l-1.206,0.283
		c0.462,0.627,2.787,0.766,1.299,1.854c-0.681-0.31-1.348-0.617-2.046-0.933c-4.984-2.252-10.336-4.673-15.014-7.757
		c-2.712-0.793-4.088-1.288-4.684-1.53c0.436,0.26,1.039,0.758,0.934,1.42c-2.669-1.763-8.821-4.047-7.753-4.964l0.804,0.234
		c1.076-0.913-9.102-3.641-11.774-6.137l1.077,2.034l-5.374-2.8l1.604,0.466c-25.4-8.632-33.968-17.52-57.781-25.695
		c3.73,0.102-4.815-1.404-4.277-2.967c-2.301-2.232-4.974-3.373-7.685-4.17c-1.368-0.404-2.693-0.698-4.081-1.044
		c-2.16-0.711-4.181-1.379-6.106-2.138c-0.017,0.081-0.131,0.132-0.584,0.058l-4.063-1.99l-9.011,4.291
		c3.55-2.91,1.298-1.319-0.952,0.314l-0.406,0.299l-0.23,0.21c-0.151,0.138-0.297,0.271-0.431,0.393
		c-0.274,0.242-0.498,0.441-0.619,0.548c-0.258,0.211-0.142,0.049,0.727-0.872c-21.729,8.978-48.199,23.794-72.789,35.116
		l1.341-0.064c-6.194,2.94-13.495,7.262-18.599,8.826c-5.107,1.567-9.484,6.19-11.248,7.154c-4.029,2.881-8.792,3.797-8.476,3.325
		c-1.649,0.937-3.222,1.985-4.825,3.08c-0.062-0.027-0.118-0.056-0.18-0.083c-1.598-0.709-3.211-1.211-3.211-1.211
		s-1.809,0.117-3.618,0.233c-1.807,0.058-3.615,0.116-3.615,0.116s-1.482,0.226-2.939,0.292c-1.473,0.081-2.958-0.007-2.958-0.007
		s0.069,0.093,0.172,0.232c0.081,0.151,0.19,0.351,0.299,0.552c0.17,0.415,0.289,0.914,0.266,0.907c0,0-0.665,0.074-1.307,0.007
		c-0.644-0.054-1.215-0.224-1.215-0.224c-0.02-0.021-0.185,0.511-0.599,0.948c-0.388,0.448-0.947,0.785-0.947,0.785
		s0.064,0.359,0.129,0.718c0.049,0.365,0.098,0.731,0.098,0.731c-0.67-1.15-0.862-1.037-1.206-0.832
		c-0.304,0.221-0.774,0.471-0.931-0.471l-0.199,1.247c-0.218,0.042-0.06-0.722-0.059-0.943c-0.78,0.054-1.772,0.156-2.725-0.159
		c-0.944-0.281-1.625-1.149-1.161-2.116c0.746-0.45,0.154-0.614,1.023-0.954c-1.722,0.12-1.876-0.53-1.689-0.987l0.156,0.015
		c-0.016,0.003-0.266-0.224-0.266-0.224c0.116-0.007,0.282-0.004,0.389,0.006c-1.239-0.307,0.049-0.684,0.593-0.793l0.143,0.043
		c0.31-0.632,0.075-1.496,0.472-2.371c0.297-0.876,1.331-1.554,2.462-0.983c0.716,0.936,0.874,0.632,1.31,0.417
		c0.375-0.263,0.984-0.497,1.117,0.441c-0.096,0.633,0.162,0.735,0.526,0.76c0.358,0.009,0.946-0.094,1.216-0.26
		c0,0,0.233-0.326,0.467-0.652c0.213-0.33,0.426-0.66,0.426-0.66c1.239,0.017,0.198,1.282,1.714,1.082l-0.327,0.149
		c-0.139,0.14,0.591-0.252,0.977-0.241c0.376-0.038,0.462,0.532-1.542,1.708L48.947,68.2c0.037,0.015,0.357-0.086-0.047,0.102
		l0.92-0.467c0.431-0.048,1.237-0.194,1.423-0.067c-0.161,0.083-0.501,0.188-0.758,0.262l0.369,0.293l-1.035,0.316
		c0.61-0.027,2.862-0.437,1.65,0.1c1.565-0.349,0.99,0.065,1.794-0.071c-0.191,0.047-0.478,0.117-0.744,0.183
		c0.199,0.208,0.667,0.644,1.515,0.782c0,0,0.82-0.257,1.863-0.692c1.071-0.426,2.215-1.05,3.035-1.404
		c-0.332,0.643,0.222,0.137,0.735-0.065l-0.402,0.017c0.327-0.419,1.323-0.597,1.565-0.848c-0.079,0.018-0.175,0.04-0.274,0.062
		l0.138,0.001c-0.173,0.051-0.296,0.061-0.399,0.059c-0.212,0.043-0.38,0.056-0.352-0.056l0.11,0
		c-0.19-0.129-0.112-0.429-0.076-0.565l0.821-0.19c-0.844,0.034-0.317-0.577,0.228-1.326c0.568-0.74,1.311-1.692,1.201-1.912
		c0.734-0.834-0.733-0.868-0.581-1.6c-0.315-0.946,0.79-0.978,1.112-1.768c0.064-0.82-0.755,0.594-0.956,0.397
		c0,0,0.135-0.308,0.27-0.617c0.116-0.309,0.231-0.619,0.231-0.619c0.388,0.32,0.647-0.139,0.857-0.38
		c-0.333-0.623,0.085-2.476-1.4-1.641c-0.11-1.201,0.356-1.641,0.086-2.015c-0.107,0.304-0.093,0.69-0.341,0.902
		c0.238-0.759-0.275-0.024-0.275,0.197c-0.475-0.003-0.53-1.016-0.743-1.944c-0.184-0.941-0.546-1.722-1.168-1.097l0.207-0.242
		c-0.967,0.903-1.599,1.988-2.404,2.306l0.135-0.604l-0.693,0.204c0.023-0.487,0.342-0.687,0.44-0.812
		c-0.964,0.131-1.39-0.939-2.122-1.459c0,0-0.24,0.842-0.48,1.683c-0.284,0.837-0.567,1.673-0.567,1.673
		c-0.055-0.976-0.48-2.874-1.101-1.945l0.122-1.207c-0.508-2.496-1.323,0.568-1.592-0.219c0,0-0.064-0.351-0.129-0.701
		c-0.08-0.344-0.16-0.687-0.16-0.687c0.005-0.013,0.715,0.229,0.715,0.229c-0.498-0.839-0.693-1.261-1.101-2.206l-0.016,0.031
		c0.03,0.06,0.042,0.124,0.028,0.198l-0.119,0.004c-0.268,0.581-0.769,0.896-1.293,0.751c-0.764-0.275-1.448,0.509-2.558-0.895
		l-0.415,1.252l-0.876-0.798l0.032-1.011c0.95,0.058,2.801-0.148,4.068,0.022l0.122-0.45C48.8,47.53,47.878,47.86,47.405,47.7
		c-0.201-0.243-0.752-1.309-0.208-1.967l-0.584,0.959c-2.635,0-2.537,0.053-5.48-0.834l0.315,0.472
		c-0.51,0.366-0.979,0.728-1.29-0.061c-1.692,0.093-3.57-0.1-5.176-0.914l0.213,1.199c-0.357,0.047-1.657-1.434-1.123,0.169
		L33.585,47.5c-0.502,0.113-0.436,0.84-1.288,0.455l0-0.001l-0.004-0.001c-0.051-0.025-0.105-0.051-0.169-0.082l0.057,0.086
		c-1.292,0.006,0.565,0.918-0.915,0.895c-0.838-0.535,0.472,1.51-0.18,1.553l-1.564-1.136c-1.565-0.19-0.648,1.302-1.874,2.206
		c-1.007-0.01-2.428-0.816-2.956-2.133c0.579,1.645,0.485,0.98,0.317,2.146c-0.613-0.366-0.646-0.526-0.922-1.086
		c-1.277,0.041,0.043,0.778-0.463,1.197c0.837,0.973,2.272,2.426,2.207,2.606l0.467,0.101c0.107,0.871-0.086,1.466-1.038,1.618
		l-0.517-0.397l-0.2,0.754l-0.729-0.427l-0.449,0.978l0.278-0.001c-0.052,0.263-0.249,1.061-0.894,1.239l-0.406-0.234
		c-2.055,0.475-0.867,2.313-1.278,3.698l-0.841-0.505c-1.118,0.181,1.358,0.62,0.672,1.03l-1.152-0.333
		c1.304,0.98-0.596,0.56-1.287,0.799l1.567,0.242l-0.524,0.598c-0.727,0.636-2.076,0.036-2.842-0.284l1.053,0.831l-1.391-0.175
		c1.481,0.734-0.392,0.371,0.332,1.268c-0.531-0.023-0.794-0.264-1.063-0.042c0,0,0.432,0.381,0.864,0.763
		c0.439,0.361,0.877,0.721,0.877,0.721l-0.746-0.831l2.003,0.369c1.425,0.891-0.392,0.924,0.133,1.492l-0.57-0.402
		c0.415,0.872-0.439,0.845-0.923,1.313c0.388-0.136,0.963-0.324,1.211,0.023c0.099,0.25-0.725,0.102-0.962,0.334
		c1.367,0.113,2.025,0.682,1.415,1.206c-0.194-0.004-0.381-0.013-0.506-0.047c0.226,0.135,0.579,0.196,0.263,0.439l-1.519-0.106
		l1.462,0.424c-0.397,0.328,0.726,0.704-0.295,0.728l-0.314-0.157c0,0-0.078,0.594-0.073,1.194c0.007,0.603,0.014,1.207,0.014,1.207
		l-1.188,0.212c1.667-0.023-0.362,1.451,1.672,0.983c-0.987,0.684,1.261,1.533-1.07,1.842c0.393,1.679,2.764,1.75,2.661,3.881
		c-1.479,1.442,0.23,2.95,0.888,4.104c2.34,1.651,4.115,2.345,6.554,3.511c-0.264,1.428,0.781,1.857,1.85,2.111
		c1.126,0.214,2.247,0.289,2.674,1.271l0.934-0.693c0.305,1.925,2.761,0.745,3.782,2.641c0.536-0.318,0.776-0.404,0.879-0.416
		c-0.058-0.063-0.112-0.271,0.045-0.885c0.311,0.535,1.354,0.198,0.978,1.41l-0.15,0.1c-0.368,1.238,1.538-0.285,1.853,0.834
		l-0.044-1.372l0.827,0.344l-0.274,0.226c2.11-1.233,3.287-0.905,4.644-0.578c1.304,0.333,2.78,0.582,4.2-1.042
		c-0.125,1.525,0.484-0.871,0.905,0.673c1.414,1.763,1.534-0.787,1.967-1.495c-0.027-0.075-0.051-0.166-0.056-0.295l0.845-0.133
		c0.093,1.819,0.268,3.85,0.443,5.843c0.439,5.003,0.849,9.703-0.23,9.82l0.182,0.085c-1.52,9.964,1.066,19.364-0.31,30.095
		c0,0-0.158-0.205-0.304-0.568l6.548,21.839l7.206-6.22l5.852-18.93c0,0-0.317-12.825-0.635-25.65
		c-0.158-6.412-0.317-12.825-0.436-17.635c-0.008-0.301-0.015-0.595-0.022-0.883c-0.003-0.187-0.011-0.236-0.011-0.236l-0.01-0.08
		c-0.013-0.108-0.026-0.21-0.038-0.306c-0.024-0.199-0.045-0.373-0.062-0.516c-0.035-0.298-0.055-0.468-0.055-0.468l0.014-0.043
		l1.184-0.292l0.263-0.057c0.113-0.031,0.032,0.033,0.605-0.225l2.546-1.109l10.183-4.436l20.366-8.872l84.985-42.641l0.548,0.211
		c-0.528-0.25,1.618,0.352,3.513,0.835c1.938,0.503,3.876,1.006,3.876,1.006c17.927,11.371,44.131,20.442,63.925,31.869l1.081-0.913
		c5.882,2.698,5.083,3.202,6.414,4.08c8.55,3.964,17.14,7.946,25.736,11.93l12.914,5.938l5.777,2.641l1.101,0.428l0.099,1.173
		l0.096,6.964c0.058,4.742,0.115,9.471,0.172,14.179c0.067,9.418,0.132,18.757,0.198,27.972c0.04,18.432-0.138,36.372-0.744,53.466
		c-0.925,4.798-0.381,19.396-1.359,23.16c1.712,16.166,1.695,33.293,1.519,49.479l-0.154-0.612l0.27,7.624
		c-0.115,0.323-0.281,0.362-0.389,0.118c1.239,8.6,0.013,22.148-0.491,32.68l-0.153-0.615c-0.048,11.666,0.007,23.174,0.114,34.58
		c0.065,5.702,0.13,11.38,0.194,17.039c0.038,2.83,0.076,5.655,0.115,8.476l0.022,2.082l-0.044,1.784
		c0.004,1.182-0.052,2.383-0.198,3.61c-0.838,9.761-3.947,19.94-8.258,29.506c-2.159,4.795-4.682,9.472-7.569,13.827
		c-2.864,4.338-6.137,8.453-9.573,11.581l7.827-2.92l-7.828,2.92c-6.74,6.181-11.639,12.982-15.846,19.941
		c-4.173,6.98-7.576,14.183-10.48,21.604c-3.1,7.101-5.527,14.738-6.895,23.038c-0.707,4.136-1.107,8.497-1.135,13.101
		c0.056,3.885,0.113,7.814,0.169,11.775c0.264,15.844,0.577,32.209-0.374,48.461c-1.393,5.966-0.347,71.725,0.308,77.536l1.7-7.624
		c0.782,24.471-0.922,35.89,0.449,56.834l-0.368-1.16c-0.393,3.05,3.424,4.77-1.239,38.453h-0.17
		c0.029,1.169,0.369,1.161-0.084,3.496l1.041-5.822c0.427,3.487,1.239,6.537,1.354,11.187c-0.188,0.988-0.537,1.326-0.809,1.422
		l0.284,11.405l-1.098,3.496c0.595,3.486,2.913,1.898,1.622,11.224c1.608-3.516,0.964,4.628,1.783,3.476
		c-0.199,0.47-0.496,1.54-0.771,2.4c0.187,5.545,0.637,15.991,1.463,18.576c0,0,3.386-21.702,5.105-27.538
		c-0.437,7.808,0.197,2.059,0.738,0.519l-0.4-0.519c0.392-4.679,1.407-4.679,1.689-7.017c-0.082,0-0.18,0.071-0.282,0.136
		l0.136,0.299c-0.179,0.221-0.303,0.091-0.404-0.159c-0.217,0.057-0.388-0.159-0.327-1.433l0.106,0.244
		c-0.148-1.955,0.011-5.328,0.084-6.797l0.848-0.029c-1.615-3.467,2.463-23.308,2.516-27.964c1.069-4.676-0.264-10.479,0.271-16.318
		c0.273-9.306,1.237-4.655,1.968-9.326c0.532-5.836-0.989,1.181-1.046-1.16l1.179-6.992c0.102,4.063,0.613,1.858,0.941,1.115
		c0.144-6.043,1.699-15.573,0.008-17.432c0.81-8.154,1.488-8.173,1.571-11.669c-0.308,1.171-0.588,3.496-0.93,3.516
		c0.746-3.266-0.184-1.561-0.351-0.224c-0.735-4.982,3.084-25.853,1.226-26.9h0.339c-1.383-1.158-2.726,0.701-3.491-2.777
		l0.618-2.321l-0.594-3.496c0.449-2.344,0.817-1.191,0.987-1.191c-0.639-5.695,0.123-13.639,0.309-20.536l-3.771,7.305
		c0.871-5.819,2.639-16.316,1.425-17.477l1.268-3.496c2.419-11.667-1.051-8.146-0.322-12.801l1.38-5.86l-0.024,5.831
		c0.7-5.831,1.151-8.163,2.05-12.813l-0.037-0.051c-0.057,0.321-0.123,0.528-0.206,0.571l-0.034-0.815
		c-0.688-0.707-1.16-3.748-1.115-7.856c0.194-5.834-0.824-10.396,0.638-19.711l-1.412-2.323l0.841-6.994h1.123
		c-0.067,6.852,0.361,19.747,0.418,28.554l0.513,0.156c-0.002-5.223-0.499-11.164-0.387-14.614c0.201-1.51,1.163-5.115,1.906-3.583
		l-0.854-2.507c-0.063-8.716-0.108-13.102,0.022-17.583c0.065-2.241,0.173-4.505,0.345-7.346c0.092-1.419,0.193-2.984,0.308-4.763
		c0.145-1.831,0.294-3.306,0.634-5.38l-0.675,1.366c-0.131-3.205,0.057-6.565,1.111-7.357c1.783-9.961,6.016-20.122,9.957-25.726
		l-0.68-1.778c0.998-1.964,4.143-4.185,2.982-5.769c0,0,0.4-1.081,0.799-2.161c0.378-1.099,0.855-2.134,0.855-2.134
		c1.53-2.522,1.868-4.371,4.353-6.777l0,0l0.013-0.014c0.162-0.134,0.332-0.275,0.502-0.416c-0.034-0.02-0.074-0.023-0.114-0.025
		c2.191-2.441,1.927-2.581,1.768-2.807c-0.176-0.232-0.236-0.56,2.46-3.106c1.881-0.955,1.013-2.191,2.216-4l-6.149,2.293
		l6.15-2.294c0.37-0.474,0.85-0.985,1.49-1.538c0,0,1.226-0.574,2.453-1.148c1.164-0.615,2.327-1.23,2.327-1.23
		c3.295-2.939,4.597-5.02,5.968-7.519c0.707-1.246,1.411-2.607,2.272-4.281c0.921-1.658,1.961-3.642,3.394-6.134
		c3.229-4.533,5.934-6.381,5.523-2.545c0.696-5.194,0.074-2.476,2.063-8.833c1.069-0.705,0.935-0.01,0.948,1.567
		c3.126-5.211,0.882-3.572,2.509-7.729c-0.801-1.602-2.348-3.567-2.008-4.937l-0.933,1.49c0.801-4.563,1.925-9.377,3.675-14.533
		l0.622,0.31c0,0,0.219-1.422,0.357-2.864c0.155-1.435,0.311-2.87,0.311-2.87l0.913-0.265c0,0,0.157-2.091,0.315-4.182
		c0.122-2.099,0.083-4.239,0.083-4.239l-0.277,1.156c0.044-2.232-0.334-7.868,0.139-11.271l0.482,0.122
		c1.503-9.448-0.466-17.237-0.625-28.302l0.984,1.453c0.978-3.769-1.514-1.033-1.025-5.525l1.208-0.224
		c-1.588-3.955,0.337-5.112,0.938-7.836l-1.583,1.274l0.334-5.132c0.525-5.652,2-3.468,2.829-2.642l-1.248-3.848l1.397-0.752
		c-1.626-2.811,0.262-2.811-0.611-7.74c0.529-0.406,0.832,0.84,1.057-0.834l-1.971-8.126l0.873,4.901l-2.042-0.596
		c-1.55-5.104,0.223-6.915-0.347-10.56l0.607,2.511c-0.496-5.95,0.373-6.268,0.825-9.625c-0.379,1.041-0.943,2.633-1.211,0.225
		c-0.113-1.768,0.718-0.959,0.943-2.63c-1.36-0.4-2.081-4.667-1.44-8.537c0.194,0.048,0.38,0.13,0.504,0.382
		c-0.22-0.987-0.571-1.498-0.244-3.217l1.512,1.012l-1.44-3.307c0.414-2.205-0.683-5.423,0.338-5.133l0.303,1.254l0.365-16.708
		l1.21-0.233c-1.664-1.651,0.633-9.099-1.445-8.552c1.133-3.152-0.801-12.409,1.543-10.555c0.181-10.976-2.074-16.907-0.934-30.251
		c1.989-4.752,1.345-17.775,1.555-26.339c-0.832-16.742-1.58-27.56-2.218-44.672c1.376-5.101,1.153-11.453,0.769-17.91
		c-0.113-1.903-0.231-3.807-0.335-5.699c1.18,0.942,2.772,1.112,4.313,1.036c1.919-0.068,3.728-0.421,5.617,0.274l-0.114-1.259
		c0.935-0.201,1.015,0.574,1.301,0.756c4.592-0.831,8.721-3.139,12.004-5.777c3.341-2.657,5.846-5.699,8.414-8.682
		c1.243-0.281,1.583-2.56,2.713-2.841c-0.829-2.86-0.378-5.209-0.164-7.618l0.15,0.093c0,0-0.06-0.282-0.12-0.564
		c-0.079-0.279-0.157-0.558-0.157-0.558c0.113-0.05,0.279-0.06,0.388-0.027C371.385,67.745,372.375,65.739,372.469,64.03z
		 M319.732,66.933c-0.037-0.017-0.078-0.035-0.116-0.053c0.06,0.019,0.135,0.029,0.237,0.021
		C319.821,66.907,319.771,66.924,319.732,66.933z M319.596,66.871c-0.463-0.215-0.951-0.434-1.425-0.649
		C319.599,65.998,319.197,66.712,319.596,66.871z M351.999,69.728c-0.193-0.008-0.379-0.016-0.503-0.021
		c0.216,0.039,0.565,0.069,0.232,0.129l-1.509-0.073l1.429,0.16c-0.419,0.062,0.672,0.254-0.345,0.178l-0.301-0.065
		c0.029,0.015-0.435,0.529-0.435,0.529l-1.194-0.172c1.636,0.315-0.649,0.135,1.374,0.502c-1.141-0.144,0.655,0.592-1.586-0.035
		c-0.257,0.162,1.803,1.12,0.523,1.095c-1.827-0.661-1.426-0.184-1.729-0.099c0.429,0.756,0.722,1.459,0.652,2.296
		c-1.043-0.851-1.023-0.618-0.98-0.186c0.023,0.366,0.069,0.955-0.481,0.402l0.397,0.925c-0.97-1.308-0.567,0.605-1.476-0.734
		c0.055,0.429,0.043,0.574,0.033,0.612c0.031,0.042,0.112,0.219,0.312,0.823c-0.249-0.405-0.341,0.194-0.636-1.037l-0.007-0.133
		c-0.278-1.219-0.17,0.647-0.503-0.427l0.307,1.324l-0.257-0.195l0.016-0.265c-0.239,1.558-0.809,1.25-1.136,0.881
		c-0.392-0.356-0.56-0.77-1.345,0.506c0.456-1.418-0.381,0.724-0.01-0.864c0.327-2.032-0.502,0.354-0.94,0.783
		c-0.031,0.074-0.068,0.16-0.116,0.276l-0.303-0.309c1.027-1.831-0.944,1.49-0.046-0.06c-0.164-0.865-0.574-1.068-1.13-1.242
		c-0.517-0.192-1.171-0.388-1.265-1.002l-0.387,0.396c-0.096-0.264-0.934-0.101-0.315-0.796c0.637-0.643-1.505,0.44-1.639,0.377
		c-0.865,0.216,0.208-0.612,0.484-0.733c-0.478-0.001-2.259,0.519-1.687-0.183c0.828-0.418,0.286-0.458-0.208-0.57
		c-0.507-0.1-1.01-0.243,0.02-0.533l-0.175,0.045c1.342-0.811-1.32-0.761-0.038-1.541c0,0,0.159-0.004,0.307-0.007
		c0,0-1.684-0.061-3.319-0.338c-1.652-0.255-3.319-0.716-3.319-0.716s-1.48,0.13-3.095,0.272c-1.057-0.562-1.964-1.034-2.48-1.304
		c-0.246-0.125-0.521-0.249-0.773-0.373c1.063-0.642,2.437-1.189,3.299-1.342c-0.564,0.722,0.161,0.222,0.72,0.156l-0.387-0.107
		c0.466-0.398,1.461-0.22,1.773-0.378c-0.081-0.011-0.178-0.025-0.278-0.039l0.129,0.051c-0.179-0.012-0.298-0.046-0.394-0.087
		c-0.214-0.034-0.38-0.085-0.286-0.19l0.098,0.042c-0.094-0.206,0.149-0.483,0.256-0.598l0.823,0.185
		c-0.723-0.321-0.028-0.74,0.973-0.968c0.989-0.245,2.088-0.331,2.214-0.468c1.147,0.097,0.125-0.817,0.843-0.982
		c0.633-0.46,1.264,0.275,2.062,0.359c0.659-0.062-0.875-0.415-0.838-0.572c0,0,0.313,0.044,0.626,0.089
		c0.318,0.06,0.636,0.12,0.636,0.12c-0.09,0.255,0.428,0.402,0.726,0.538c0.389-0.223,1.884,0.248,0.693-0.794
		c0.966,0.135,1.435,0.572,1.626,0.489c-0.261-0.151-0.554-0.233-0.805-0.442c0.669,0.332-0.069-0.18-0.246-0.226
		c-0.174-0.347,0.692-0.118,1.359,0.111c0.657,0.202,1.179,0.429,0.638-0.253l0.207,0.242c-0.785-1.026-1.709-1.914-1.967-2.6
		l0.5,0.358l-0.144-0.574c0.391,0.239,0.529,0.561,0.627,0.685c-0.015-0.659,0.863-0.367,1.342-0.391c0,0-0.561-0.698-1.122-1.396
		c-0.59-0.669-1.179-1.338-1.179-1.338c0.899,0.406,2.384,1.588,1.951,0.542l0.743,0.944c1.642,1.787,0.178-1.063,0.767-0.559
		c0,0,0.205,0.262,0.41,0.523c0.197,0.274,0.394,0.548,0.394,0.548l-0.373,0.086c0.57,0.466,0.847,0.869,1.314,1.583l-0.007-0.033
		c-0.031-0.046-0.058-0.101-0.081-0.173l0.036-0.04c-0.132-0.607-0.059-1.071,0.202-1.086c0.37,0.145,0.562-0.843,1.273,0.427
		l0.04-1.272l0.494,0.735l0.032,1.011c-0.401-0.068-1.061,0.398-1.497,0.517l0.092,0.454c0.252-0.025,0.483-0.513,0.679-0.445
		c0.122,0.173,0.42,1.24,0.35,1.914l0.048-0.988c0.777-0.162,0.912-0.18,1.514,1.019l0.008-0.514c0.19-0.27,0.419-0.536,0.303,0.28
		c0.415,0.237,0.693,0.958,0.376,2.242l0.5-1.105c0.068,0.093-0.595,1.784,0.146,0.249l0.39-0.41c0.055,0.129,0.463-0.45,0.245,0.21
		l0,0.001l-0.001,0.003c-0.015,0.04-0.031,0.083-0.049,0.133l0.049-0.089c-0.04,0.558,0.568-0.95,0.472-0.198
		c-0.399,0.776,0.958-1.244,0.974-0.922l-0.893,1.503c-0.432,0.952,0.707-0.438,1.077-0.186c-0.278,0.606-1.346,1.701-2.357,2.623
		c1.243-1.101,0.787-0.733,1.5-1.178c-0.478,0.477-0.604,0.561-1.075,0.961c-0.491,0.595,0.508-0.367,0.552-0.268
		c0.993-0.819,2.607-2.094,2.716-2.102l0.26-0.307c0.658-0.296,1.144-0.322,0.747,0.258l-0.539,0.37l0.426-0.001l-0.69,0.474
		c0,0,0.439,0.096,0.428,0.106l0.171-0.156c0.132,0.005,0.53,0.092,0.227,0.42l-0.418,0.215c-1.11,0.955,0.762,0.364,1.118,0.803
		l-0.939,0.264c-0.863,0.444,1.428-0.448,1.044-0.114l-1.136,0.37c1.557-0.32-0.221,0.28-0.789,0.51l1.505-0.46l-0.274,0.28
		c-0.45,0.331-1.906,0.558-2.712,0.736l1.241-0.172l-1.354,0.304c1.606-0.251-0.216,0.103,0.64,0.07
		c-0.519,0.094-0.82,0.117-1.039,0.188c0,0,0.492-0.026,0.984-0.053c0.499-0.006,0.998-0.012,0.998-0.012l-0.891-0.025l2.021-0.265
		c1.561,0.002-0.154,0.281,0.411,0.357l-0.61-0.04c0.505,0.176-0.368,0.261-0.813,0.384c0.377-0.048,0.938-0.141,1.209-0.063
		c0.116,0.062-0.715,0.067-0.936,0.131C351.897,69.384,352.665,69.569,351.999,69.728z"/>
	<path id="XMLID_170_" style="fill:#982135;" d="M318.261,62.423l0.004-0.037C317.702,62.232,317.898,62.345,318.261,62.423z"/>
	<polygon id="XMLID_169_" style="fill:#982135;" points="339.275,60.644 339.242,60.642 339.715,61.27 	"/>
	<path id="XMLID_168_" style="fill:#982135;" d="M335.445,64.302c0.282-0.096,0.187-0.166-0.033-0.266
		C335.324,64.081,335.316,64.164,335.445,64.302z"/>
	<path id="XMLID_167_" style="fill:#982135;" d="M326.436,67.041l0.462,0.127C326.802,67.04,326.629,67.018,326.436,67.041z"/>
	<path id="XMLID_166_" style="fill:#982135;" d="M296.421,55.999C296,55.747,295.735,55.718,296.421,55.999L296.421,55.999z"/>
	<path id="XMLID_165_" style="fill:#982135;" d="M333.364,398.329c-0.051,0.143-0.077,0.214-0.128,0.355
		c0.169,0.338,0.308,0.648,0.394,0.934L333.364,398.329z"/>
	<path id="XMLID_164_" style="fill:#982135;" d="M298.211,447.799c-0.097,0.082-0.162,0.136-0.251,0.212
		C298.118,448.072,298.222,448.204,298.211,447.799z"/>
	<path id="XMLID_163_" style="fill:#982135;" d="M337.314,264.437c0.061,0.279,0.114,0.568,0.137,0.956
		C337.468,264.903,337.405,264.633,337.314,264.437z"/>
	<path id="XMLID_162_" style="fill:#982135;" d="M188.937,9.016c0,0,0.226-0.126,0.394-0.22c-0.329,0.105-0.644,0.206-1.003,0.32
		L188.937,9.016z"/>
	<path id="XMLID_161_" style="fill:#982135;" d="M191.288,7.459c-0.067,0.002-0.227,0.049-0.541,0.171
		C190.859,7.611,191.024,7.561,191.288,7.459z"/>
	<path id="XMLID_160_" style="fill:#982135;" d="M191.353,7.435c-0.027,0.011-0.04,0.014-0.066,0.024
		c0.02,0,0.071-0.016,0.066-0.004c0.184,0.118,0.173,0.142,0.001,0.089c-0.18,0.209-1.458,0.935-2.023,1.252
		c0.686-0.219,1.359-0.465,2.028-0.738c1.541,0.857,3.064,1.554,4.65,2.18C196.079,9.883,192.745,8.311,191.353,7.435z"/>
	<path id="XMLID_159_" style="fill:#982135;" d="M316.154,270.934c-0.034-0.28-0.071-0.587-0.103-0.848
		C316.039,270.526,316.087,270.767,316.154,270.934z"/>
	<path id="XMLID_158_" style="fill:#982135;" d="M53.512,106.534l-0.688-0.324C53.11,106.497,53.325,106.562,53.512,106.534z"/>
	<path id="XMLID_157_" style="fill:#982135;" d="M279.732,492.603c-0.211-0.01-0.393,0.075-0.554,0.183
		c-0.011,0.059-0.019,0.102-0.025,0.133L279.732,492.603z"/>
	<path id="XMLID_156_" style="fill:#982135;" d="M268.068,753.885l-0.49-1.049c0.044,0.553,0.119,0.939,0.221,1.189
		C267.885,754.005,267.974,753.96,268.068,753.885z"/>
	<path id="XMLID_155_" style="fill:#982135;" d="M275.762,562.727c0.08,0.063,0.153,0.232,0.239,0.244
		c0.23-1.223,0.281-4.449,0.255-8.574l-0.845-0.252L275.762,562.727z"/>
	<path id="XMLID_154_" style="fill:#982135;" d="M70.669,67.845c0.167-0.095,0.321-0.206,0.49-0.298
		C70.87,67.676,70.716,67.775,70.669,67.845z"/>
	<path id="XMLID_153_" style="fill:#982135;" d="M278.287,536.356l0.245,0.72C278.455,536.755,278.372,536.531,278.287,536.356z"/>
	<path id="XMLID_152_" style="fill:#982135;" d="M257.936,737.728l-0.007-0.253C257.339,737.486,257.562,737.864,257.936,737.728z"
		/>
	<path id="XMLID_151_" style="fill:#982135;" d="M274.047,601.904c-0.005,0.148-0.01,0.289-0.015,0.429l0.832-1.614L274.047,601.904
		z"/>
	<path id="XMLID_150_" style="fill:#982135;" d="M274.34,685.365c-0.035,1.413,0.01,2.651,0.194,3.541
		C274.718,684.997,274.576,684.815,274.34,685.365z"/>
	<path id="XMLID_149_" style="fill:#982135;" d="M259.058,769.664c-0.047,2.055,0.305,1.271,0.698,0.065
		c-0.063-2.095-0.106-3.551-0.106-3.551C259.509,767.329,259.199,768.481,259.058,769.664z"/>
	<path id="XMLID_148_" style="fill:#982135;" d="M267.061,761.286l0.478,0.64C267.421,760.718,267.247,760.766,267.061,761.286z"/>
	<path id="XMLID_144_" style="fill:#982135;" d="M90.145,345.562c-0.049,0.909-0.089,1.899-0.075,2.965
		c-0.09,1.031-0.184,2.118-0.282,3.242c0,1.178-0.372,2.228-0.49,3.431c-0.101,1.223-0.529,2.296-0.803,3.493
		c-0.247,1.212-0.775,2.27-1.153,3.458c-0.575,1.031-0.946,2.26-1.618,3.238c-0.605,1.039-1.23,2.059-1.948,2.965
		c-0.681,0.944-1.447,1.762-2.158,2.565c-1.477,1.534-2.921,2.784-4.035,3.565c-1.105,0.788-1.827,1.211-1.827,1.211
		s3.417,0.589,8.605-0.767c1.252-0.377,2.684-0.786,4.048-1.449c1.417-0.612,2.873-1.357,4.256-2.302
		c1.461-0.881,2.748-2.001,4.131-3.137c1.171-1.236,2.553-2.477,3.604-3.862c1.014-1.396,2.17-2.809,2.939-4.286
		c0.835-1.459,1.703-2.952,2.234-4.408c1.291-2.924,2.041-5.717,2.512-8.123c0.603-2.419,0.564-4.385,0.714-5.794
		c0.026-0.639,0.046-1.135,0.061-1.504h0.028v-58.441l0.919,0.97c2.058,2.172,3.188,4.933,3.188,7.788v88.041
		c0,2.855-1.131,5.617-3.188,7.788l-2.049,2.162h63.954l-1.997-2.108c-2.058-2.172-3.188-4.933-3.188-7.788v-88.15
		c0-2.856,1.13-5.617,3.188-7.788l1.997-2.108H108.89v-37.49l59.375-0.003l-2.349-2.479c-1.858-1.96-2.879-4.454-2.879-7.031
		v-62.001c0-2.578,1.021-5.071,2.878-7.031l2.359-2.49H84.961l2.265,2.292c1.961,1.983,3.045,4.547,3.045,7.203v167.968
		C90.27,339.367,90.276,343.76,90.145,345.562z M131.617,297.197h16.292v74.407h-16.292V297.197z M108.89,178.672h35.528v47.499
		H108.89V178.672z"/>
	<path id="XMLID_143_" style="fill:#982135;" d="M257.3,302.335h-34.34v-34.699h34.34v-7.163c0-2.631,1.041-5.176,2.938-7.178
		l2.299-2.427h-97.772l2.305,2.433c1.893,1.997,2.934,4.537,2.938,7.163l0.012,7.172h34.321v34.699h-34.339l2.058,2.433
		c1.69,1.998,2.62,4.537,2.624,7.163l0.011,7.172h29.647v62.333c0,2.196-0.87,4.32-2.452,5.991l-2.784,2.939h29.093l-2.784-2.939
		c-1.583-1.67-2.453-3.795-2.453-5.991v-62.333h29.663v-7.164c0-2.631,0.93-5.176,2.624-7.179L257.3,302.335z"/>
	<path id="XMLID_142_" style="fill:#982135;" d="M164.765,180.768l2.305,2.433c1.893,1.997,2.934,4.537,2.938,7.163l0.012,7.172
		h10.218c-0.228,8.962-0.429,22.679,0.256,28.636c0.144,1.254,0.764,3.281,1.391,4.885c1.267,3.19,4.02,7.213,7.473,10.709
		c1.697,1.762,3.798,3.291,5.886,4.432c1.131,0.516,2.101,1.056,3.165,1.38c1.076,0.305,2.005,0.644,2.951,0.741
		c1.884,0.234,3.326,0.254,4.359,0.075c0.981-0.13,1.541-0.205,1.541-0.205s-0.469-0.285-1.289-0.784
		c-0.82-0.403-1.841-1.216-2.832-2.201c-0.495-0.486-0.909-1.146-1.374-1.698c-0.45-0.577-0.759-1.351-1.125-1.996
		c-0.3-0.736-0.556-1.5-0.778-2.254c-0.158-0.836-0.437-1.52-0.519-2.372c-0.4-2.326-0.341-26.288-0.278-39.348h28.609
		c0.063,13.06,0.122,37.022-0.278,39.348c-0.082,0.852-0.361,1.536-0.519,2.372c-0.222,0.754-0.478,1.517-0.778,2.254
		c-0.366,0.644-0.675,1.419-1.125,1.996c-0.464,0.552-0.878,1.212-1.374,1.698c-0.991,0.985-2.012,1.798-2.832,2.201
		c-0.821,0.499-1.289,0.784-1.289,0.784s0.56,0.075,1.541,0.205c1.034,0.179,2.475,0.159,4.359-0.075
		c0.947-0.098,1.876-0.436,2.951-0.741c1.064-0.323,2.034-0.864,3.165-1.38c2.088-1.141,4.189-2.669,5.886-4.432
		c3.453-3.496,6.205-7.519,7.473-10.709c0.627-1.604,1.246-3.631,1.39-4.885c0.686-5.957,0.484-19.673,0.256-28.636h10.8v-7.163
		c0-2.631,1.041-5.176,2.938-7.179l2.299-2.426H222.96v-13.39c0-2.433,0.964-4.787,2.717-6.638l2.52-2.66h-29.093l2.52,2.66
		c1.754,1.851,2.717,4.205,2.717,6.638v13.39H164.765z"/>
	<path id="XMLID_141_" style="fill:#982135;" d="M148.465,502.888c-0.304-0.298-0.557-0.703-0.842-1.04
		c-0.275-0.353-0.465-0.828-0.689-1.223c-0.183-0.451-0.34-0.919-0.477-1.38c-0.097-0.512-0.268-0.932-0.318-1.453
		c-0.338-1.969-0.14-19.547-0.14-19.547h-11.407c0,0-0.649,7.344,0,12.984c0.089,0.768,0.468,2.009,0.852,2.992
		c0.776,1.954,2.463,4.419,4.578,6.561c1.039,1.079,2.327,2.015,3.606,2.715c0.693,0.316,1.287,0.647,1.939,0.845
		c0.659,0.187,1.228,0.394,1.808,0.454c1.154,0.143,2.038,0.156,2.67,0.046c0.601-0.08,0.944-0.126,0.944-0.126
		s-0.287-0.175-0.79-0.481C149.697,503.989,149.072,503.491,148.465,502.888z"/>
	<path id="XMLID_140_" style="fill:#982135;" d="M160.872,478.244c0,0,0.198,17.578-0.14,19.547
		c-0.05,0.522-0.221,0.941-0.318,1.453c-0.137,0.462-0.293,0.929-0.477,1.38c-0.224,0.394-0.413,0.869-0.689,1.223
		c-0.285,0.338-0.538,0.742-0.841,1.04c-0.263,0.262-0.529,0.491-0.788,0.701v1.303c0.528,0.015,1.125-0.002,1.878-0.096
		c0.58-0.06,1.149-0.268,1.808-0.454c0.652-0.198,1.247-0.529,1.939-0.845c1.279-0.7,2.567-1.635,3.606-2.715
		c2.115-2.142,3.801-4.607,4.577-6.561c0.385-0.983,0.764-2.224,0.852-2.992c0.649-5.641,0-12.984,0-12.984H160.872z"/>
	<path id="XMLID_139_" style="fill:#982135;" d="M80.15,618.483c-1.143,2.166-2.177,3.563-2.177,3.563s1.788-0.491,4.268-1.748
		c2.434-1.273,5.691-3.269,8.311-6.05c1.344-1.36,2.592-2.867,3.603-4.418c1.029-1.536,1.789-3.131,2.201-4.553
		c0.443-1.421,0.689-2.645,0.709-3.513c0.093-0.864,0.078-1.359,0.078-1.359v-34.851H83.808v34.851c0,0-0.06,0.292-0.047,0.804
		c-0.012,0.512,0.083,1.25,0.043,2.156c-0.009,1.787,0.157,4.47-0.565,7.281C82.553,613.429,81.356,616.364,80.15,618.483z"/>
	<path id="XMLID_138_" style="fill:#982135;" d="M104.088,619.9l-3.3,2.993c-1.639,1.487-3.87,2.324-6.198,2.324H80.613v12.009
		h23.476V619.9z"/>
	<path id="XMLID_134_" style="fill:#982135;" d="M180.873,612.012c0.03,0.649-0.035,1.344-0.147,2.089
		c-0.065,0.753-0.142,1.57-0.378,2.401c-0.276,1.713-0.968,3.54-1.76,5.46c-0.844,1.892-1.926,3.822-3.155,5.584
		c-1.169,1.818-2.486,3.463-3.706,4.837c-2.401,2.813-4.381,4.596-4.381,4.596s2.799-0.17,6.848-1.374
		c1.988-0.644,4.322-1.488,6.741-2.673c2.385-1.209,4.866-2.743,7.117-4.639c1.121-0.955,2.273-1.918,3.21-3.047
		c1.018-1.073,1.965-2.196,2.707-3.404c0.836-1.159,1.539-2.351,2.052-3.554c0.581-1.18,1.104-2.319,1.367-3.428
		c0.092-0.316,0.247-0.869,0.421-1.495c0.646-2.316,0.976-4.698,0.976-7.086V458.413c0-3.009,1.191-5.921,3.361-8.21l1.64-1.731
		h-99.592l1.64,1.731c2.169,2.29,3.361,5.201,3.361,8.21v171.452l2.649-2.796c1.492-1.576,3.676-2.482,5.975-2.482h9.157v-61.027
		h9.233v35.506c0,1.452-0.575,2.856-1.621,3.96l-3.38,3.567h40.562v-8.474c0-1.452,0.575-2.855,1.621-3.959l3.38-3.567
		l-22.782-0.012v-27.021h27.014v44.23C181.004,607.789,180.932,610.737,180.873,612.012z M126.977,464.483h54.028v44.014h-54.028
		V464.483z M162.279,547.546v-8.791c0-2.324,0.92-4.572,2.595-6.339l2.406-2.54h-26.578l2.406,2.54
		c1.675,1.768,2.595,4.015,2.595,6.339v8.791h-18.726V524.51h54.028v23.037H162.279z"/>
	<path id="XMLID_128_" style="fill:#982135;" d="M210.325,649.021v-7.211h-18.632h-3.478H73.299v-82.063h5.418h23.839l-1.71-1.805
		c-2.124-2.242-3.29-5.092-3.29-8.038v-82.328c0-2.947,1.166-5.797,3.29-8.038l1.71-1.806h-38.47v-9.838
		c0-2.019,0.799-3.971,2.255-5.507l2.746-2.899H41.305l2.746,2.899c1.455,1.536,2.255,3.488,2.255,5.507v9.838H7.835l1.71,1.806
		c2.124,2.241,3.29,5.092,3.29,8.038v82.328c0,2.947-1.167,5.796-3.29,8.038l-1.71,1.805h9.092H27.72v77.478h-0.001
		c0,0-0.076,2.739-0.048,3.312c0.009,0.287,0.007,0.635,0.078,1.051c-0.054,0.389-0.058,0.842-0.046,1.358
		c0.082,0.533-0.084,1.07-0.114,1.701c0.034,0.654-0.21,1.297-0.329,2.049c-0.277,1.495-1.015,3.116-1.933,4.788
		c-1.047,1.59-2.229,3.271-3.582,4.763c-1.309,1.535-2.786,2.805-4.046,3.972c-2.586,2.252-4.612,3.608-4.612,3.608
		s2.509,0.018,6.299-0.622c1.882-0.345,4.079-0.857,6.41-1.644c2.374-0.72,4.802-1.847,7.201-3.205
		c2.333-1.445,4.676-3.125,6.58-5.138c0.96-1.002,1.862-2.013,2.534-3.119c0.671-1.095,1.397-2.123,1.761-3.189
		c0.417-1.048,0.784-2.029,1.058-2.911c0.197-0.883,0.278-1.672,0.37-2.318c0.071-0.499,0.117-1.275,0.147-2.041H45.5v-79.893h9.167
		v89.778c0,1.944-0.795,3.819-2.234,5.268l-3.006,3.029h166.138l-2.633-2.652C211.253,653.48,210.325,651.29,210.325,649.021z
		 M46.306,543.736H30.617v-30.047h15.689V543.736z M46.306,497.677H30.617v-23.933h15.689V497.677z M64.086,473.744h15.689v23.933
		H64.086V473.744z M64.086,513.689h15.689v30.047H64.086V513.689z"/>
</g>
</svg>
